<?xml version="1.0" standalone="no"?>
<!DOCTYPE svg PUBLIC "-//W3C//DTD SVG 20010904//EN"
 "http://www.w3.org/TR/2001/REC-SVG-20010904/DTD/svg10.dtd">
<svg version="1.0" xmlns="http://www.w3.org/2000/svg"
 width="1536.000000pt" height="1536.000000pt" viewBox="0 0 1536.000000 1536.000000"
 preserveAspectRatio="xMidYMid meet">
<metadata>
Created by potrace 1.10, written by Peter Selinger 2001-2011
</metadata>
<g transform="translate(0.000000,1536.000000) scale(0.100000,-0.100000)"
fill="#000000" stroke="none">
<path d="M6722 14800 l-1644 -5 -26 -31 c-15 -17 -67 -82 -116 -145 -49 -63
-113 -143 -141 -179 -28 -36 -96 -121 -150 -190 -54 -69 -131 -165 -170 -215
-39 -49 -113 -144 -165 -210 -52 -66 -110 -140 -129 -164 -20 -24 -63 -78 -96
-121 -98 -127 -286 -366 -405 -515 -61 -77 -162 -205 -225 -285 -180 -230
-325 -413 -347 -439 -12 -13 -66 -83 -122 -154 -55 -71 -125 -159 -154 -196
-52 -66 -125 -159 -284 -362 -46 -58 -99 -126 -119 -150 -20 -24 -101 -126
-180 -227 -167 -213 -213 -271 -329 -418 -47 -60 -90 -117 -97 -129 -10 -15
-12 -486 -13 -2097 l0 -2076 43 -55 c23 -30 56 -72 72 -93 17 -22 73 -93 126
-159 52 -66 139 -176 193 -245 54 -69 112 -142 130 -164 17 -21 58 -73 91
-115 33 -43 83 -106 110 -141 28 -35 86 -109 129 -164 44 -56 113 -144 155
-197 42 -52 147 -185 233 -295 86 -109 176 -224 200 -253 132 -167 507 -643
583 -741 33 -43 87 -111 119 -151 79 -98 144 -181 252 -318 49 -63 134 -171
189 -240 55 -69 109 -138 120 -152 11 -15 83 -107 160 -204 144 -182 159 -202
257 -327 31 -40 70 -88 87 -106 l30 -32 1659 0 c1642 0 1658 0 1680 20 11 11
48 55 81 97 79 102 98 126 206 263 50 63 106 135 125 160 19 25 37 47 41 50 3
3 33 39 65 81 71 92 313 400 439 559 50 63 131 166 181 229 49 63 155 198 236
300 82 102 167 211 191 241 65 84 192 244 272 345 39 50 112 141 161 204 158
202 246 314 324 411 42 52 131 165 197 250 67 85 212 270 323 410 315 398 363
459 392 499 l27 36 1 2076 0 2077 -42 55 c-24 31 -88 113 -143 183 -55 70
-120 152 -145 184 -25 32 -92 117 -150 190 -58 73 -114 144 -125 159 -11 15
-47 60 -80 101 -32 41 -104 131 -158 200 -54 69 -118 150 -142 180 -24 30 -71
89 -103 130 -32 41 -112 143 -178 226 -65 83 -164 208 -219 279 -55 70 -127
162 -161 204 -33 42 -96 121 -139 176 -149 190 -224 285 -297 376 -29 36 -89
112 -133 168 -44 57 -127 162 -184 235 -57 72 -135 172 -174 221 -100 127
-211 268 -277 350 -31 39 -78 99 -105 135 -27 36 -66 85 -87 110 -20 25 -76
95 -124 155 -90 114 -106 129 -139 136 -11 2 -759 2 -1663 -1z m1702 -87 c19
-21 70 -84 113 -139 122 -158 396 -507 415 -529 22 -26 138 -174 235 -300 42
-55 80 -102 83 -105 4 -3 47 -57 95 -120 49 -63 92 -117 95 -120 3 -3 26 -32
52 -65 26 -33 112 -141 190 -240 79 -99 150 -190 158 -202 8 -12 51 -66 95
-121 44 -54 125 -157 180 -227 55 -70 145 -185 200 -254 55 -70 138 -176 185
-235 47 -60 90 -114 95 -120 11 -11 189 -238 259 -330 52 -67 189 -240 197
-246 3 -3 18 -23 35 -45 16 -22 83 -108 149 -191 344 -435 359 -454 374 -482
8 -15 11 -620 11 -2075 l0 -2055 -69 -90 c-38 -50 -107 -138 -153 -195 -181
-227 -356 -450 -497 -632 -47 -60 -88 -112 -91 -115 -3 -3 -30 -36 -60 -75
-30 -38 -63 -79 -72 -90 -9 -11 -45 -57 -80 -101 -186 -241 -232 -299 -238
-304 -3 -3 -41 -52 -85 -109 -44 -57 -94 -120 -111 -140 -16 -20 -79 -99 -140
-176 -60 -77 -116 -149 -126 -160 -9 -11 -46 -58 -83 -105 -80 -103 -102 -131
-185 -235 -36 -45 -110 -139 -165 -210 -55 -70 -163 -207 -240 -304 -77 -97
-178 -226 -225 -285 -47 -60 -112 -143 -145 -185 -33 -42 -99 -125 -145 -184
-47 -60 -101 -128 -120 -152 -19 -24 -62 -79 -95 -121 -33 -43 -76 -95 -96
-116 l-36 -38 -1630 0 -1630 0 -27 21 c-24 19 -152 176 -211 259 -11 15 -36
48 -56 72 -71 86 -568 715 -754 953 -44 56 -117 149 -162 206 -46 57 -125 157
-175 222 -51 66 -122 156 -158 202 -36 45 -98 124 -138 176 -40 52 -95 121
-122 154 -27 33 -88 110 -135 170 -48 61 -99 126 -115 145 -71 89 -157 197
-175 222 -11 15 -48 62 -82 105 -126 159 -200 253 -283 359 -46 60 -91 115
-98 123 -7 8 -47 57 -87 110 -41 53 -115 148 -165 211 -50 63 -119 151 -152
195 -34 44 -67 85 -73 90 -6 6 -31 37 -56 69 l-44 59 0 2057 0 2057 44 59 c24
32 77 100 116 149 113 142 324 410 390 495 33 42 74 95 92 116 17 22 60 76 95
120 34 45 101 131 148 190 46 60 87 111 90 114 3 3 71 88 150 190 80 102 149
190 155 196 5 6 37 46 70 88 33 43 109 139 168 214 60 76 139 175 176 222 37
47 110 139 162 205 113 143 184 233 303 386 50 63 124 157 165 209 41 52 94
120 118 150 24 30 82 105 131 165 48 61 151 190 227 288 77 98 172 218 210
266 39 49 107 137 153 195 l83 106 1644 0 1644 0 35 -37z"/>
<path d="M5134 14700 c-17 -7 -92 -96 -254 -303 -39 -50 -202 -257 -360 -457
-275 -349 -345 -438 -460 -585 -63 -81 -120 -153 -125 -159 -11 -11 -383 -483
-664 -842 -50 -63 -97 -123 -331 -420 -36 -45 -103 -130 -150 -189 -98 -125
-176 -224 -312 -397 -87 -111 -369 -468 -508 -643 -30 -38 -58 -75 -63 -81 -4
-7 -7 -927 -7 -2045 0 -1914 1 -2035 18 -2066 9 -18 148 -197 307 -399 160
-202 343 -435 408 -518 65 -83 160 -203 210 -266 87 -109 129 -163 328 -416
47 -60 148 -188 225 -285 76 -97 193 -245 259 -329 66 -84 143 -181 170 -214
28 -34 96 -119 150 -190 55 -70 129 -165 165 -211 36 -45 103 -130 150 -190
47 -59 114 -145 150 -190 36 -45 98 -124 138 -176 40 -52 95 -121 122 -154 27
-33 85 -107 131 -165 280 -358 281 -359 319 -370 24 -8 514 -10 1622 -8 l1586
3 27 25 c14 14 54 61 88 104 64 83 146 186 308 391 120 151 217 275 394 500
236 299 390 495 474 600 44 55 126 159 181 230 56 72 121 154 143 183 23 30
89 113 147 186 58 72 152 192 210 266 58 73 148 188 201 254 156 198 288 365
368 466 41 52 107 136 146 185 39 50 110 140 158 200 47 61 150 191 228 289
78 99 148 191 155 205 12 22 14 375 14 2051 0 1781 -2 2028 -15 2054 -8 16
-48 70 -88 120 -40 50 -116 145 -167 211 -52 66 -126 161 -165 210 -39 50
-119 151 -178 225 -59 74 -162 205 -229 291 -143 181 -378 479 -493 624 -44
56 -118 151 -165 210 -47 60 -132 168 -190 241 -58 72 -132 167 -165 210 -33
42 -134 171 -225 285 -239 301 -471 596 -500 634 -25 33 -113 145 -299 380
-52 66 -129 163 -170 215 -147 186 -163 205 -184 217 -17 10 -384 12 -1617 12
-877 0 -1604 -4 -1616 -9z m3199 -117 c8 -10 30 -56 47 -103 18 -47 40 -103
50 -125 21 -50 38 -93 88 -225 71 -186 134 -344 153 -387 11 -23 19 -45 19
-49 0 -10 139 -361 190 -479 10 -22 34 -85 55 -140 45 -122 160 -414 186 -472
11 -23 19 -46 19 -52 0 -6 7 -25 15 -43 8 -18 49 -121 91 -228 42 -107 80
-202 84 -210 4 -8 17 -40 28 -70 41 -109 114 -297 152 -390 21 -52 55 -138 75
-190 58 -150 123 -317 165 -420 22 -52 55 -138 75 -190 20 -52 40 -104 45
-115 5 -11 19 -44 30 -73 20 -52 20 -70 20 -1607 l0 -1555 -57 -68 c-52 -61
-337 -391 -404 -467 -33 -37 -285 -327 -439 -506 -63 -73 -151 -174 -195 -224
-44 -51 -103 -118 -131 -151 -142 -164 -284 -327 -419 -484 -82 -96 -170 -197
-195 -225 -45 -51 -127 -145 -209 -240 -24 -27 -50 -56 -59 -62 -12 -10 -239
-13 -1058 -13 -573 0 -1049 3 -1057 6 -13 4 -92 92 -217 238 -14 16 -45 53
-70 81 -25 28 -56 65 -70 81 -14 16 -84 96 -155 178 -72 83 -177 204 -234 270
-57 67 -106 123 -110 126 -3 3 -31 34 -61 70 -30 36 -89 103 -130 150 -41 47
-127 146 -190 219 -63 74 -120 139 -125 145 -6 6 -86 99 -179 206 -92 107
-180 209 -195 225 -14 17 -71 82 -126 145 -54 63 -123 142 -153 175 -30 33
-67 79 -83 102 l-29 42 0 1533 0 1533 45 120 c25 66 50 129 55 140 5 11 16 38
23 60 8 22 47 121 87 220 40 99 91 232 115 295 24 63 59 153 79 200 32 78 96
242 148 380 12 30 27 69 34 85 7 17 47 118 89 225 138 354 157 404 201 510 23
58 57 143 75 190 18 47 79 204 137 350 57 146 114 292 127 325 13 33 66 169
119 301 53 133 96 245 96 249 0 4 6 21 14 38 8 18 42 102 76 187 33 85 68 161
77 168 13 9 346 12 1583 12 1480 0 1568 -1 1583 -17z m267 -268 c47 -60 139
-177 205 -260 66 -84 160 -203 210 -266 49 -63 157 -200 240 -304 82 -105 169
-215 193 -245 128 -164 238 -303 289 -367 32 -39 76 -95 98 -123 22 -29 83
-107 136 -174 52 -66 141 -179 198 -251 56 -71 150 -191 209 -265 58 -74 140
-178 181 -230 41 -52 107 -135 146 -185 70 -88 235 -298 405 -514 125 -159
280 -356 322 -409 21 -26 51 -66 68 -89 l30 -42 0 -2023 0 -2023 -48 -61 c-26
-34 -61 -79 -79 -100 -17 -21 -64 -81 -105 -133 -143 -183 -200 -256 -228
-291 -28 -35 -96 -121 -300 -380 -59 -74 -151 -192 -206 -261 -54 -69 -148
-188 -208 -265 -235 -299 -338 -428 -422 -533 -32 -40 -93 -117 -134 -170
-105 -136 -158 -203 -295 -375 -66 -83 -185 -234 -265 -336 -80 -102 -183
-233 -230 -291 -47 -59 -130 -164 -185 -235 -55 -70 -157 -200 -227 -288 -70
-89 -144 -183 -165 -210 -21 -27 -52 -64 -69 -83 l-32 -33 -1583 0 c-1230 1
-1587 3 -1599 13 -8 7 -31 32 -50 57 -38 49 -182 233 -295 375 -39 50 -114
144 -165 210 -52 66 -139 177 -195 247 -55 69 -154 195 -220 279 -245 311
-310 394 -327 414 -9 11 -36 45 -60 76 -24 31 -90 116 -148 189 -147 185 -222
280 -320 406 -46 60 -92 118 -102 129 -18 21 -112 141 -220 280 -34 44 -123
157 -197 250 -227 286 -320 404 -466 590 -77 98 -145 183 -150 189 -6 6 -42
52 -80 101 -38 50 -95 123 -127 163 l-58 73 0 2027 c0 1887 1 2029 17 2052 16
25 71 94 262 335 52 66 114 145 138 175 24 30 47 60 51 65 4 6 59 75 122 155
63 80 142 179 175 221 33 42 98 125 145 185 47 59 139 177 205 260 66 83 174
220 240 304 66 84 174 221 240 305 66 84 167 212 225 286 58 73 160 203 227
289 68 85 126 160 131 165 4 6 43 55 87 110 43 55 112 143 154 195 41 52 93
118 115 146 23 28 55 68 71 90 17 21 66 83 109 138 44 56 120 153 170 216 161
206 161 206 164 188 2 -9 -15 -63 -38 -120 -23 -57 -51 -125 -61 -153 -11 -27
-24 -59 -29 -70 -6 -11 -21 -51 -36 -90 -14 -38 -63 -164 -108 -280 -46 -115
-109 -277 -141 -360 -32 -82 -79 -202 -105 -265 -26 -63 -66 -167 -90 -230
-23 -63 -48 -128 -56 -145 -7 -16 -27 -66 -44 -110 -18 -44 -47 -116 -64 -160
-18 -44 -38 -93 -44 -110 -26 -72 -185 -478 -211 -540 -5 -11 -26 -65 -46
-120 -21 -55 -43 -113 -50 -130 -71 -170 -165 -407 -196 -500 -12 -33 -29 -78
-39 -100 -17 -38 -84 -203 -117 -290 -8 -22 -21 -55 -29 -73 -12 -28 -14 -277
-14 -1582 0 -914 4 -1559 9 -1573 5 -13 15 -30 23 -38 27 -29 147 -166 214
-245 38 -44 101 -117 139 -160 39 -44 108 -124 155 -179 47 -54 90 -103 95
-109 6 -6 96 -110 200 -231 104 -121 206 -238 226 -260 20 -22 70 -79 110
-126 164 -190 203 -235 228 -264 50 -56 276 -317 319 -368 24 -29 56 -65 71
-82 14 -16 60 -68 100 -115 175 -201 198 -227 238 -270 l42 -45 1081 0 1081 0
42 46 c23 25 122 137 219 250 98 112 187 215 199 229 12 14 74 86 137 160 64
74 119 137 123 140 3 3 80 91 170 196 90 104 252 291 359 415 107 123 206 237
220 254 14 16 43 50 66 75 22 25 98 113 169 195 71 83 132 152 135 155 3 3 30
34 60 70 55 64 68 79 175 200 32 36 64 74 71 86 12 18 14 268 12 1600 l-3
1579 -78 193 c-43 107 -82 201 -86 210 -5 9 -18 42 -29 72 -55 146 -172 445
-206 525 -7 17 -23 55 -34 85 -47 126 -116 301 -152 390 -21 52 -55 138 -75
190 -20 52 -42 111 -50 130 -14 37 -62 156 -101 250 -12 30 -34 84 -47 120
-77 202 -103 267 -149 380 -55 134 -62 152 -131 335 -25 66 -73 188 -107 270
-34 83 -66 166 -72 185 -5 19 -13 40 -17 45 -4 6 -22 51 -41 100 -18 50 -38
104 -46 120 -32 71 -104 258 -104 268 1 15 34 -22 140 -158z"/>
<path d="M6192 14202 c-10 -10 -39 -92 -66 -182 -26 -91 -54 -183 -61 -205 -7
-22 -27 -87 -45 -145 -17 -58 -47 -157 -66 -220 -76 -248 -85 -277 -98 -325
-8 -27 -28 -93 -44 -145 -34 -105 -137 -448 -176 -580 -14 -47 -52 -175 -86
-285 -75 -242 -119 -390 -129 -430 -4 -16 -13 -46 -19 -65 -19 -56 -68 -218
-92 -300 -12 -41 -33 -109 -45 -150 -13 -41 -38 -122 -55 -180 -49 -161 -58
-190 -80 -258 -19 -61 -20 -85 -20 -982 0 -753 2 -927 14 -953 7 -18 172 -270
367 -562 195 -291 363 -544 374 -562 103 -167 334 -497 353 -504 13 -5 255 -9
539 -9 l516 0 36 38 c20 21 54 68 76 104 48 78 253 388 290 438 15 19 86 125
159 235 72 110 141 214 153 230 76 109 381 575 391 598 9 21 12 242 12 938 0
871 -1 912 -19 977 -11 37 -54 180 -97 317 -42 138 -82 270 -89 295 -21 72
-70 233 -120 395 -25 83 -57 188 -71 235 -14 47 -29 96 -34 110 -5 14 -18 59
-30 100 -12 41 -28 93 -35 115 -16 51 -37 121 -64 210 -11 39 -41 138 -67 220
-25 83 -49 164 -54 180 -4 17 -13 48 -20 70 -33 104 -49 154 -64 205 -47 161
-159 530 -170 565 -15 45 -37 117 -95 314 -22 73 -48 142 -57 152 -16 18 -40
19 -556 19 -502 0 -539 -1 -556 -18z m1066 -64 c5 -7 15 -32 21 -55 6 -23 22
-75 35 -115 43 -135 118 -381 154 -503 12 -38 37 -124 57 -190 20 -66 82 -268
136 -450 55 -181 125 -411 155 -510 80 -262 110 -361 134 -445 12 -41 28 -93
35 -115 13 -38 26 -82 105 -345 18 -58 42 -139 55 -180 13 -41 33 -109 45
-150 12 -41 28 -93 35 -115 7 -22 23 -74 35 -115 13 -41 31 -102 41 -134 18
-56 19 -108 19 -966 l0 -906 -57 -90 c-32 -49 -84 -128 -116 -174 -31 -47
-172 -257 -312 -467 -140 -211 -281 -422 -313 -470 -32 -49 -96 -144 -142
-213 -45 -69 -92 -135 -103 -147 l-20 -23 -503 0 c-276 0 -510 3 -519 6 -8 4
-189 268 -402 588 -212 319 -418 628 -456 686 -39 58 -99 148 -134 200 l-63
95 0 915 0 914 31 101 c73 238 102 333 168 555 39 129 78 260 87 290 9 30 22
73 29 95 7 22 23 74 35 115 12 41 25 86 30 100 5 14 18 59 30 100 12 41 32
109 45 150 13 41 38 122 55 180 17 58 38 123 45 145 7 22 20 65 29 95 17 59
157 524 181 600 8 25 21 68 29 95 8 28 24 84 36 125 12 41 28 93 35 115 7 22
21 67 31 100 9 33 27 92 39 130 12 39 30 97 40 130 10 33 26 86 37 118 10 31
18 61 18 66 0 5 7 25 15 45 l15 36 504 0 c391 0 506 -3 514 -12z"/>
<path d="M6684 10822 c-18 -11 -39 -58 -90 -198 -26 -71 -51 -133 -55 -138 -5
-6 -9 -25 -9 -42 0 -24 5 -34 21 -39 26 -9 46 10 74 67 l20 43 74 0 73 0 18
-45 c21 -54 59 -81 84 -61 9 7 16 21 16 30 0 24 -138 352 -157 374 -17 18 -50
22 -69 9z m58 -160 c19 -49 13 -62 -28 -62 -28 0 -34 4 -34 20 0 25 27 80 39
80 4 0 15 -17 23 -38z"/>
<path d="M4428 10830 c-49 -15 -90 -52 -114 -104 -82 -175 54 -372 224 -326
105 28 175 160 85 160 -16 0 -30 -10 -43 -33 -45 -76 -146 -73 -186 5 -23 45
-20 141 6 183 24 39 37 45 96 45 33 0 49 -5 62 -21 45 -55 68 -63 93 -33 11
13 10 22 -6 52 -36 65 -133 97 -217 72z"/>
<path d="M9050 10824 c-83 -36 -120 -100 -120 -206 1 -135 74 -221 189 -222
97 0 186 67 179 134 -5 45 -44 39 -93 -14 -49 -54 -82 -59 -135 -23 -42 28
-63 86 -55 147 13 88 43 120 114 120 33 0 47 -7 76 -36 44 -44 78 -44 83 0 4
34 -35 81 -85 102 -42 18 -109 17 -153 -2z"/>
<path d="M10637 10827 c-12 -4 -25 -13 -29 -20 -4 -7 -8 -91 -8 -187 0 -225
-3 -220 121 -220 53 0 103 6 122 14 98 41 145 172 107 294 -13 38 -50 85 -85
105 -25 15 -198 25 -228 14z m177 -77 c57 -21 82 -124 52 -205 -15 -37 -24
-46 -54 -56 -20 -6 -57 -9 -82 -7 l-45 3 -3 129 c-2 97 1 131 10 138 18 11 91
10 122 -2z"/>
<path d="M2656 10809 c-13 -19 -16 -53 -16 -189 0 -216 -1 -214 110 -218 132
-5 190 20 232 101 32 61 31 176 -1 234 -43 75 -70 88 -197 91 -107 4 -112 3
-128 -19z m198 -59 c84 -32 89 -226 6 -260 -15 -6 -49 -10 -76 -8 l-49 3 -3
124 c-1 69 0 131 2 138 6 16 83 18 120 3z"/>
</g>
</svg>
